<svg width="12" height="12" viewBox="0 0 12 12" fill="none" xmlns="http://www.w3.org/2000/svg">
<path fill-rule="evenodd" clip-rule="evenodd" d="M10.2826 4.15124L9.84963 3.71811C9.69959 3.57573 9.52434 3.50452 9.3243 3.50452C9.12013 3.50452 8.94696 3.57573 8.80452 3.71811L5.99818 6.52453L3.19186 3.71819C3.04944 3.57581 2.87623 3.5046 2.67214 3.5046C2.472 3.5046 2.29679 3.57581 2.14673 3.71819L1.71942 4.15132C1.57311 4.29753 1.5 4.47273 1.5 4.67678C1.5 4.88463 1.57319 5.05786 1.7194 5.19642L5.47845 8.95548C5.61709 9.10171 5.79023 9.17488 5.99816 9.17488C6.20219 9.17488 6.37737 9.10173 6.52354 8.95548L10.2826 5.19642C10.425 5.05395 10.4963 4.88075 10.4963 4.67678C10.4963 4.47654 10.4251 4.30143 10.2826 4.15124Z" fill="#252525"/>
</svg>
